<mxfile host="Electron" agent="Mozilla/5.0 (Macintosh; Intel Mac OS X 10_15_7) AppleWebKit/537.36 (KHTML, like Gecko) draw.io/24.7.17 Chrome/128.0.6613.36 Electron/32.0.1 Safari/537.36" version="24.7.17">
  <diagram name="Page-1" id="tBIAlemMxgHySIvlNtww">
    <mxGraphModel dx="684" dy="495" grid="1" gridSize="10" guides="1" tooltips="1" connect="1" arrows="1" fold="1" page="1" pageScale="1" pageWidth="1920" pageHeight="1200" math="0" shadow="0">
      <root>
        <mxCell id="0" />
        <mxCell id="1" parent="0" />
        <mxCell id="5hbl4wRv4H9p2pOyox1n-1" value="" style="rounded=0;whiteSpace=wrap;html=1;fillColor=none;" parent="1" vertex="1">
          <mxGeometry width="640" height="480" as="geometry" />
        </mxCell>
        <mxCell id="5hbl4wRv4H9p2pOyox1n-37" value="" style="rounded=0;whiteSpace=wrap;html=1;" parent="1" vertex="1">
          <mxGeometry y="160" width="640" height="150" as="geometry" />
        </mxCell>
        <mxCell id="5hbl4wRv4H9p2pOyox1n-2" value="" style="rounded=0;whiteSpace=wrap;html=1;" parent="1" vertex="1">
          <mxGeometry y="310" width="640" height="170" as="geometry" />
        </mxCell>
        <mxCell id="5hbl4wRv4H9p2pOyox1n-3" value="&lt;div&gt;(0, 380)&lt;/div&gt;&lt;font color=&quot;#ff3333&quot;&gt;25x25&lt;/font&gt;&lt;div&gt;&lt;font color=&quot;#ff3333&quot;&gt;x4&lt;/font&gt;&lt;/div&gt;" style="whiteSpace=wrap;html=1;aspect=fixed;" parent="1" vertex="1">
          <mxGeometry y="380" width="100" height="100" as="geometry" />
        </mxCell>
        <mxCell id="5hbl4wRv4H9p2pOyox1n-4" value="&lt;div&gt;(540, 380)&lt;font color=&quot;#ff3333&quot;&gt;&lt;br&gt;&lt;/font&gt;&lt;/div&gt;&lt;font color=&quot;#ff3333&quot;&gt;25x25&lt;/font&gt;&lt;div&gt;&lt;font color=&quot;#ff3333&quot;&gt;x4&lt;/font&gt;&lt;/div&gt;" style="whiteSpace=wrap;html=1;aspect=fixed;" parent="1" vertex="1">
          <mxGeometry x="540" y="380" width="100" height="100" as="geometry" />
        </mxCell>
        <mxCell id="5hbl4wRv4H9p2pOyox1n-6" value="(105, 330)" style="rounded=0;whiteSpace=wrap;html=1;" parent="1" vertex="1">
          <mxGeometry x="105" y="330" width="100" height="60" as="geometry" />
        </mxCell>
        <mxCell id="5hbl4wRv4H9p2pOyox1n-7" value="(215, 330)" style="rounded=0;whiteSpace=wrap;html=1;" parent="1" vertex="1">
          <mxGeometry x="215" y="330" width="100" height="60" as="geometry" />
        </mxCell>
        <mxCell id="5hbl4wRv4H9p2pOyox1n-10" value="(325, 330)" style="rounded=0;whiteSpace=wrap;html=1;" parent="1" vertex="1">
          <mxGeometry x="325" y="330" width="100" height="60" as="geometry" />
        </mxCell>
        <mxCell id="5hbl4wRv4H9p2pOyox1n-11" value="(435, 330)" style="rounded=0;whiteSpace=wrap;html=1;" parent="1" vertex="1">
          <mxGeometry x="435" y="330" width="100" height="60" as="geometry" />
        </mxCell>
        <mxCell id="5hbl4wRv4H9p2pOyox1n-12" value="&lt;font color=&quot;#ff3333&quot;&gt;25x15&lt;/font&gt;&lt;div&gt;&lt;font color=&quot;#ff3333&quot;&gt;x4&lt;/font&gt;&lt;/div&gt;" style="rounded=0;whiteSpace=wrap;html=1;" parent="1" vertex="1">
          <mxGeometry x="105" y="400" width="100" height="60" as="geometry" />
        </mxCell>
        <mxCell id="5hbl4wRv4H9p2pOyox1n-13" value="" style="rounded=0;whiteSpace=wrap;html=1;" parent="1" vertex="1">
          <mxGeometry x="215" y="400" width="100" height="60" as="geometry" />
        </mxCell>
        <mxCell id="5hbl4wRv4H9p2pOyox1n-14" value="" style="rounded=0;whiteSpace=wrap;html=1;" parent="1" vertex="1">
          <mxGeometry x="325" y="400" width="100" height="60" as="geometry" />
        </mxCell>
        <mxCell id="5hbl4wRv4H9p2pOyox1n-15" value="" style="rounded=0;whiteSpace=wrap;html=1;" parent="1" vertex="1">
          <mxGeometry x="435" y="400" width="100" height="60" as="geometry" />
        </mxCell>
        <mxCell id="5hbl4wRv4H9p2pOyox1n-20" value="" style="ellipse;whiteSpace=wrap;html=1;aspect=fixed;" parent="1" vertex="1">
          <mxGeometry x="10" y="10" width="40" height="40" as="geometry" />
        </mxCell>
        <mxCell id="5hbl4wRv4H9p2pOyox1n-22" value="&lt;p style=&quot;line-height: 0%; margin-top: 12px; margin-bottom: 12px; font-size: 14px;&quot;&gt;&lt;font style=&quot;font-size: 14px;&quot; face=&quot;Fira Code&quot;&gt;&lt;span style=&quot;font-size: 14px;&quot;&gt;Level N&lt;/span&gt;&lt;/font&gt;&lt;/p&gt;" style="rounded=0;whiteSpace=wrap;html=1;align=center;fontSize=14;spacing=0;" parent="1" vertex="1">
          <mxGeometry x="13" y="371" width="75" height="20" as="geometry" />
        </mxCell>
        <mxCell id="5hbl4wRv4H9p2pOyox1n-23" value="&lt;p style=&quot;line-height: 0%; margin-top: 12px; margin-bottom: 12px; font-size: 14px;&quot;&gt;&lt;font face=&quot;Fira Code&quot;&gt;Launch&lt;/font&gt;&lt;/p&gt;" style="rounded=0;whiteSpace=wrap;html=1;align=center;fontSize=14;spacing=0;" parent="1" vertex="1">
          <mxGeometry x="552" y="370" width="75" height="20" as="geometry" />
        </mxCell>
        <mxCell id="5hbl4wRv4H9p2pOyox1n-25" value="&lt;p style=&quot;line-height: 0%; margin-top: 12px; margin-bottom: 12px; font-size: 14px;&quot;&gt;&lt;font face=&quot;Fira Code&quot;&gt;XXX元&lt;/font&gt;&lt;/p&gt;" style="rounded=0;whiteSpace=wrap;html=1;align=center;fontSize=14;spacing=0;" parent="1" vertex="1">
          <mxGeometry x="150" y="440" width="55" height="20" as="geometry" />
        </mxCell>
        <mxCell id="5hbl4wRv4H9p2pOyox1n-27" value="&lt;p style=&quot;line-height: 0%; margin-top: 12px; margin-bottom: 12px; font-size: 14px;&quot;&gt;&lt;font face=&quot;Fira Code&quot;&gt;XXX元&lt;/font&gt;&lt;/p&gt;" style="rounded=0;whiteSpace=wrap;html=1;align=center;fontSize=14;spacing=0;" parent="1" vertex="1">
          <mxGeometry x="260" y="440" width="55" height="20" as="geometry" />
        </mxCell>
        <mxCell id="5hbl4wRv4H9p2pOyox1n-28" value="&lt;p style=&quot;line-height: 0%; margin-top: 12px; margin-bottom: 12px; font-size: 14px;&quot;&gt;&lt;font face=&quot;Fira Code&quot;&gt;$XXX&lt;/font&gt;&lt;/p&gt;" style="rounded=0;whiteSpace=wrap;html=1;align=center;fontSize=14;spacing=0;" parent="1" vertex="1">
          <mxGeometry x="370" y="370" width="55" height="20" as="geometry" />
        </mxCell>
        <mxCell id="5hbl4wRv4H9p2pOyox1n-29" value="&lt;p style=&quot;line-height: 0%; margin-top: 12px; margin-bottom: 12px; font-size: 14px;&quot;&gt;&lt;font face=&quot;Fira Code&quot;&gt;XXX元&lt;/font&gt;&lt;/p&gt;" style="rounded=0;whiteSpace=wrap;html=1;align=center;fontSize=14;spacing=0;" parent="1" vertex="1">
          <mxGeometry x="370" y="440" width="55" height="20" as="geometry" />
        </mxCell>
        <mxCell id="5hbl4wRv4H9p2pOyox1n-30" value="&lt;p style=&quot;line-height: 0%; margin-top: 12px; margin-bottom: 12px; font-size: 14px;&quot;&gt;&lt;font face=&quot;Fira Code&quot;&gt;XXX元&lt;/font&gt;&lt;/p&gt;" style="rounded=0;whiteSpace=wrap;html=1;align=center;fontSize=14;spacing=0;" parent="1" vertex="1">
          <mxGeometry x="480" y="370" width="55" height="20" as="geometry" />
        </mxCell>
        <mxCell id="5hbl4wRv4H9p2pOyox1n-31" value="&lt;p style=&quot;line-height: 0%; margin-top: 12px; margin-bottom: 12px; font-size: 14px;&quot;&gt;&lt;font face=&quot;Fira Code&quot;&gt;XXX元&lt;/font&gt;&lt;/p&gt;" style="rounded=0;whiteSpace=wrap;html=1;align=center;fontSize=14;spacing=0;" parent="1" vertex="1">
          <mxGeometry x="480" y="440" width="55" height="20" as="geometry" />
        </mxCell>
        <mxCell id="5hbl4wRv4H9p2pOyox1n-32" value="+15,+40 70x15" style="rounded=0;whiteSpace=wrap;html=1;fontSize=10;" parent="1" vertex="1">
          <mxGeometry x="120" y="370" width="70" height="15" as="geometry" />
        </mxCell>
        <mxCell id="5hbl4wRv4H9p2pOyox1n-33" value="&lt;span style=&quot;font-size: 10px;&quot;&gt;+15,+40 70x15&lt;/span&gt;" style="rounded=0;whiteSpace=wrap;html=1;" parent="1" vertex="1">
          <mxGeometry x="230" y="370" width="70" height="15" as="geometry" />
        </mxCell>
        <mxCell id="5hbl4wRv4H9p2pOyox1n-34" value="" style="rounded=0;whiteSpace=wrap;html=1;" parent="1" vertex="1">
          <mxGeometry y="210" width="640" height="60" as="geometry" />
        </mxCell>
        <mxCell id="5hbl4wRv4H9p2pOyox1n-35" value="" style="rounded=0;whiteSpace=wrap;html=1;" parent="1" vertex="1">
          <mxGeometry x="20" y="140" width="50" height="120" as="geometry" />
        </mxCell>
        <mxCell id="5hbl4wRv4H9p2pOyox1n-52" value="" style="rounded=0;whiteSpace=wrap;html=1;" parent="1" vertex="1">
          <mxGeometry x="10" y="10" width="40" height="40" as="geometry" />
        </mxCell>
        <mxCell id="5hbl4wRv4H9p2pOyox1n-36" value="" style="rounded=0;whiteSpace=wrap;html=1;" parent="1" vertex="1">
          <mxGeometry x="570" y="140" width="50" height="120" as="geometry" />
        </mxCell>
        <mxCell id="5hbl4wRv4H9p2pOyox1n-38" value="" style="rounded=0;whiteSpace=wrap;html=1;" parent="1" vertex="1">
          <mxGeometry x="20" y="20" width="7" height="20" as="geometry" />
        </mxCell>
        <mxCell id="5hbl4wRv4H9p2pOyox1n-39" value="" style="rounded=0;whiteSpace=wrap;html=1;" parent="1" vertex="1">
          <mxGeometry x="33" y="20" width="7" height="20" as="geometry" />
        </mxCell>
        <mxCell id="5hbl4wRv4H9p2pOyox1n-41" value="" style="rounded=0;whiteSpace=wrap;html=1;fillColor=none;" parent="1" vertex="1">
          <mxGeometry x="1000" width="640" height="480" as="geometry" />
        </mxCell>
        <mxCell id="5hbl4wRv4H9p2pOyox1n-42" value="&lt;font style=&quot;font-size: 70px;&quot;&gt;FPCAT&lt;/font&gt;" style="rounded=0;whiteSpace=wrap;html=1;fillColor=none;strokeColor=default;dashed=1;fontSize=70;" parent="1" vertex="1">
          <mxGeometry x="1160" y="150" width="320" height="70" as="geometry" />
        </mxCell>
        <mxCell id="5hbl4wRv4H9p2pOyox1n-43" value="&lt;font style=&quot;font-size: 30px;&quot;&gt;GAME START&lt;/font&gt;" style="rounded=0;whiteSpace=wrap;html=1;fontSize=30;" parent="1" vertex="1">
          <mxGeometry x="1200" y="270" width="240" height="50" as="geometry" />
        </mxCell>
        <mxCell id="5hbl4wRv4H9p2pOyox1n-44" value="" style="rounded=0;whiteSpace=wrap;html=1;fillColor=none;" parent="1" vertex="1">
          <mxGeometry x="2000" width="640" height="480" as="geometry" />
        </mxCell>
        <mxCell id="5hbl4wRv4H9p2pOyox1n-45" value="&lt;font style=&quot;font-size: 30px;&quot;&gt;LEVEL 1&lt;/font&gt;" style="rounded=0;whiteSpace=wrap;html=1;fontSize=30;" parent="1" vertex="1">
          <mxGeometry x="2160" y="80" width="320" height="60" as="geometry" />
        </mxCell>
        <mxCell id="5hbl4wRv4H9p2pOyox1n-46" value="&lt;font style=&quot;font-size: 30px;&quot;&gt;LEVEL 2&lt;/font&gt;" style="rounded=0;whiteSpace=wrap;html=1;fontSize=30;" parent="1" vertex="1">
          <mxGeometry x="2160" y="200" width="320" height="60" as="geometry" />
        </mxCell>
        <mxCell id="5hbl4wRv4H9p2pOyox1n-47" value="&lt;font style=&quot;font-size: 30px;&quot;&gt;LEVEL 3&lt;/font&gt;" style="rounded=0;whiteSpace=wrap;html=1;fontSize=30;" parent="1" vertex="1">
          <mxGeometry x="2160" y="320" width="320" height="60" as="geometry" />
        </mxCell>
        <mxCell id="5hbl4wRv4H9p2pOyox1n-50" value="" style="rounded=0;whiteSpace=wrap;html=1;" parent="1" vertex="1">
          <mxGeometry x="512" y="190" width="40" height="60" as="geometry" />
        </mxCell>
        <mxCell id="_4HMyWejS0h1UbmQmY5R-5" value="&lt;font style=&quot;font-size: 24px;&quot; face=&quot;Fira Code&quot;&gt;/9999&lt;/font&gt;" style="rounded=0;whiteSpace=wrap;html=1;" vertex="1" parent="1">
          <mxGeometry x="525" y="15" width="100" height="30" as="geometry" />
        </mxCell>
        <mxCell id="_4HMyWejS0h1UbmQmY5R-6" value="&lt;font style=&quot;font-size: 24px;&quot;&gt;$6666&lt;/font&gt;" style="rounded=0;whiteSpace=wrap;html=1;" vertex="1" parent="1">
          <mxGeometry x="425" y="15" width="100" height="30" as="geometry" />
        </mxCell>
        <mxCell id="5hbl4wRv4H9p2pOyox1n-21" value="&lt;p style=&quot;line-height: 0%; margin-top: 18px; margin-bottom: 12px;&quot;&gt;&lt;font style=&quot;font-size: 28px;&quot; face=&quot;Fira Code&quot;&gt;Level&lt;/font&gt;&lt;/p&gt;" style="rounded=0;whiteSpace=wrap;html=1;align=center;" parent="1" vertex="1">
          <mxGeometry x="10" y="10" width="120" height="40" as="geometry" />
        </mxCell>
        <mxCell id="_4HMyWejS0h1UbmQmY5R-7" value="" style="rounded=0;whiteSpace=wrap;html=1;" vertex="1" parent="1">
          <mxGeometry x="300" y="10" width="40" height="40" as="geometry" />
        </mxCell>
        <mxCell id="_4HMyWejS0h1UbmQmY5R-8" value="" style="rounded=0;whiteSpace=wrap;html=1;fillColor=none;" vertex="1" parent="1">
          <mxGeometry y="1000" width="640" height="480" as="geometry" />
        </mxCell>
        <mxCell id="_4HMyWejS0h1UbmQmY5R-9" value="" style="rounded=0;whiteSpace=wrap;html=1;" vertex="1" parent="1">
          <mxGeometry y="1160" width="640" height="150" as="geometry" />
        </mxCell>
        <mxCell id="_4HMyWejS0h1UbmQmY5R-10" value="" style="rounded=0;whiteSpace=wrap;html=1;" vertex="1" parent="1">
          <mxGeometry y="1310" width="640" height="170" as="geometry" />
        </mxCell>
        <mxCell id="_4HMyWejS0h1UbmQmY5R-11" value="&lt;div&gt;(0, 380)&lt;/div&gt;&lt;font color=&quot;#ff3333&quot;&gt;25x25&lt;/font&gt;&lt;div&gt;&lt;font color=&quot;#ff3333&quot;&gt;x4&lt;/font&gt;&lt;/div&gt;" style="whiteSpace=wrap;html=1;aspect=fixed;" vertex="1" parent="1">
          <mxGeometry y="1380" width="100" height="100" as="geometry" />
        </mxCell>
        <mxCell id="_4HMyWejS0h1UbmQmY5R-12" value="&lt;div&gt;(540, 380)&lt;font color=&quot;#ff3333&quot;&gt;&lt;br&gt;&lt;/font&gt;&lt;/div&gt;&lt;font color=&quot;#ff3333&quot;&gt;25x25&lt;/font&gt;&lt;div&gt;&lt;font color=&quot;#ff3333&quot;&gt;x4&lt;/font&gt;&lt;/div&gt;" style="whiteSpace=wrap;html=1;aspect=fixed;" vertex="1" parent="1">
          <mxGeometry x="540" y="1380" width="100" height="100" as="geometry" />
        </mxCell>
        <mxCell id="_4HMyWejS0h1UbmQmY5R-13" value="(105, 330)" style="rounded=0;whiteSpace=wrap;html=1;" vertex="1" parent="1">
          <mxGeometry x="105" y="1330" width="100" height="60" as="geometry" />
        </mxCell>
        <mxCell id="_4HMyWejS0h1UbmQmY5R-14" value="(215, 330)" style="rounded=0;whiteSpace=wrap;html=1;" vertex="1" parent="1">
          <mxGeometry x="215" y="1330" width="100" height="60" as="geometry" />
        </mxCell>
        <mxCell id="_4HMyWejS0h1UbmQmY5R-15" value="(325, 330)" style="rounded=0;whiteSpace=wrap;html=1;" vertex="1" parent="1">
          <mxGeometry x="325" y="1330" width="100" height="60" as="geometry" />
        </mxCell>
        <mxCell id="_4HMyWejS0h1UbmQmY5R-16" value="(435, 330)" style="rounded=0;whiteSpace=wrap;html=1;" vertex="1" parent="1">
          <mxGeometry x="435" y="1330" width="100" height="60" as="geometry" />
        </mxCell>
        <mxCell id="_4HMyWejS0h1UbmQmY5R-17" value="&lt;font color=&quot;#ff3333&quot;&gt;25x15&lt;/font&gt;&lt;div&gt;&lt;font color=&quot;#ff3333&quot;&gt;x4&lt;/font&gt;&lt;/div&gt;" style="rounded=0;whiteSpace=wrap;html=1;" vertex="1" parent="1">
          <mxGeometry x="105" y="1400" width="100" height="60" as="geometry" />
        </mxCell>
        <mxCell id="_4HMyWejS0h1UbmQmY5R-18" value="" style="rounded=0;whiteSpace=wrap;html=1;" vertex="1" parent="1">
          <mxGeometry x="215" y="1400" width="100" height="60" as="geometry" />
        </mxCell>
        <mxCell id="_4HMyWejS0h1UbmQmY5R-19" value="" style="rounded=0;whiteSpace=wrap;html=1;" vertex="1" parent="1">
          <mxGeometry x="325" y="1400" width="100" height="60" as="geometry" />
        </mxCell>
        <mxCell id="_4HMyWejS0h1UbmQmY5R-20" value="" style="rounded=0;whiteSpace=wrap;html=1;" vertex="1" parent="1">
          <mxGeometry x="435" y="1400" width="100" height="60" as="geometry" />
        </mxCell>
        <mxCell id="_4HMyWejS0h1UbmQmY5R-21" value="" style="ellipse;whiteSpace=wrap;html=1;aspect=fixed;" vertex="1" parent="1">
          <mxGeometry x="10" y="1010" width="40" height="40" as="geometry" />
        </mxCell>
        <mxCell id="_4HMyWejS0h1UbmQmY5R-22" value="&lt;p style=&quot;line-height: 0%; margin-top: 12px; margin-bottom: 12px; font-size: 14px;&quot;&gt;&lt;font style=&quot;font-size: 14px;&quot; face=&quot;Fira Code&quot;&gt;&lt;span style=&quot;font-size: 14px;&quot;&gt;Level N&lt;/span&gt;&lt;/font&gt;&lt;/p&gt;" style="rounded=0;whiteSpace=wrap;html=1;align=center;fontSize=14;spacing=0;" vertex="1" parent="1">
          <mxGeometry x="13" y="1371" width="75" height="20" as="geometry" />
        </mxCell>
        <mxCell id="_4HMyWejS0h1UbmQmY5R-23" value="&lt;p style=&quot;line-height: 0%; margin-top: 12px; margin-bottom: 12px; font-size: 14px;&quot;&gt;&lt;font face=&quot;Fira Code&quot;&gt;Launch&lt;/font&gt;&lt;/p&gt;" style="rounded=0;whiteSpace=wrap;html=1;align=center;fontSize=14;spacing=0;" vertex="1" parent="1">
          <mxGeometry x="552" y="1370" width="75" height="20" as="geometry" />
        </mxCell>
        <mxCell id="_4HMyWejS0h1UbmQmY5R-24" value="&lt;p style=&quot;line-height: 0%; margin-top: 12px; margin-bottom: 12px; font-size: 14px;&quot;&gt;&lt;font face=&quot;Fira Code&quot;&gt;XXX元&lt;/font&gt;&lt;/p&gt;" style="rounded=0;whiteSpace=wrap;html=1;align=center;fontSize=14;spacing=0;" vertex="1" parent="1">
          <mxGeometry x="150" y="1440" width="55" height="20" as="geometry" />
        </mxCell>
        <mxCell id="_4HMyWejS0h1UbmQmY5R-25" value="&lt;p style=&quot;line-height: 0%; margin-top: 12px; margin-bottom: 12px; font-size: 14px;&quot;&gt;&lt;font face=&quot;Fira Code&quot;&gt;XXX元&lt;/font&gt;&lt;/p&gt;" style="rounded=0;whiteSpace=wrap;html=1;align=center;fontSize=14;spacing=0;" vertex="1" parent="1">
          <mxGeometry x="260" y="1440" width="55" height="20" as="geometry" />
        </mxCell>
        <mxCell id="_4HMyWejS0h1UbmQmY5R-26" value="&lt;p style=&quot;line-height: 0%; margin-top: 12px; margin-bottom: 12px; font-size: 14px;&quot;&gt;&lt;font face=&quot;Fira Code&quot;&gt;$XXX&lt;/font&gt;&lt;/p&gt;" style="rounded=0;whiteSpace=wrap;html=1;align=center;fontSize=14;spacing=0;" vertex="1" parent="1">
          <mxGeometry x="370" y="1370" width="55" height="20" as="geometry" />
        </mxCell>
        <mxCell id="_4HMyWejS0h1UbmQmY5R-27" value="&lt;p style=&quot;line-height: 0%; margin-top: 12px; margin-bottom: 12px; font-size: 14px;&quot;&gt;&lt;font face=&quot;Fira Code&quot;&gt;XXX元&lt;/font&gt;&lt;/p&gt;" style="rounded=0;whiteSpace=wrap;html=1;align=center;fontSize=14;spacing=0;" vertex="1" parent="1">
          <mxGeometry x="370" y="1440" width="55" height="20" as="geometry" />
        </mxCell>
        <mxCell id="_4HMyWejS0h1UbmQmY5R-28" value="&lt;p style=&quot;line-height: 0%; margin-top: 12px; margin-bottom: 12px; font-size: 14px;&quot;&gt;&lt;font face=&quot;Fira Code&quot;&gt;XXX元&lt;/font&gt;&lt;/p&gt;" style="rounded=0;whiteSpace=wrap;html=1;align=center;fontSize=14;spacing=0;" vertex="1" parent="1">
          <mxGeometry x="480" y="1370" width="55" height="20" as="geometry" />
        </mxCell>
        <mxCell id="_4HMyWejS0h1UbmQmY5R-29" value="&lt;p style=&quot;line-height: 0%; margin-top: 12px; margin-bottom: 12px; font-size: 14px;&quot;&gt;&lt;font face=&quot;Fira Code&quot;&gt;XXX元&lt;/font&gt;&lt;/p&gt;" style="rounded=0;whiteSpace=wrap;html=1;align=center;fontSize=14;spacing=0;" vertex="1" parent="1">
          <mxGeometry x="480" y="1440" width="55" height="20" as="geometry" />
        </mxCell>
        <mxCell id="_4HMyWejS0h1UbmQmY5R-30" value="+15,+40 70x15" style="rounded=0;whiteSpace=wrap;html=1;fontSize=10;" vertex="1" parent="1">
          <mxGeometry x="120" y="1370" width="70" height="15" as="geometry" />
        </mxCell>
        <mxCell id="_4HMyWejS0h1UbmQmY5R-31" value="&lt;span style=&quot;font-size: 10px;&quot;&gt;+15,+40 70x15&lt;/span&gt;" style="rounded=0;whiteSpace=wrap;html=1;" vertex="1" parent="1">
          <mxGeometry x="230" y="1370" width="70" height="15" as="geometry" />
        </mxCell>
        <mxCell id="_4HMyWejS0h1UbmQmY5R-32" value="" style="rounded=0;whiteSpace=wrap;html=1;" vertex="1" parent="1">
          <mxGeometry y="1210" width="640" height="60" as="geometry" />
        </mxCell>
        <mxCell id="_4HMyWejS0h1UbmQmY5R-33" value="" style="rounded=0;whiteSpace=wrap;html=1;" vertex="1" parent="1">
          <mxGeometry x="20" y="1140" width="50" height="120" as="geometry" />
        </mxCell>
        <mxCell id="_4HMyWejS0h1UbmQmY5R-34" value="" style="rounded=0;whiteSpace=wrap;html=1;" vertex="1" parent="1">
          <mxGeometry x="10" y="1010" width="40" height="40" as="geometry" />
        </mxCell>
        <mxCell id="_4HMyWejS0h1UbmQmY5R-35" value="" style="rounded=0;whiteSpace=wrap;html=1;" vertex="1" parent="1">
          <mxGeometry x="570" y="1140" width="50" height="120" as="geometry" />
        </mxCell>
        <mxCell id="_4HMyWejS0h1UbmQmY5R-36" value="" style="rounded=0;whiteSpace=wrap;html=1;" vertex="1" parent="1">
          <mxGeometry x="20" y="1020" width="7" height="20" as="geometry" />
        </mxCell>
        <mxCell id="_4HMyWejS0h1UbmQmY5R-37" value="" style="rounded=0;whiteSpace=wrap;html=1;" vertex="1" parent="1">
          <mxGeometry x="33" y="1020" width="7" height="20" as="geometry" />
        </mxCell>
        <mxCell id="_4HMyWejS0h1UbmQmY5R-38" value="" style="rounded=0;whiteSpace=wrap;html=1;" vertex="1" parent="1">
          <mxGeometry x="512" y="1190" width="40" height="60" as="geometry" />
        </mxCell>
        <mxCell id="_4HMyWejS0h1UbmQmY5R-39" value="" style="rounded=0;whiteSpace=wrap;html=1;fillColor=#CCFFFF;" vertex="1" parent="1">
          <mxGeometry y="1160" width="640" height="160" as="geometry" />
        </mxCell>
        <mxCell id="_4HMyWejS0h1UbmQmY5R-40" value="&lt;font style=&quot;font-size: 70px;&quot;&gt;YOU WIN&lt;/font&gt;" style="rounded=0;whiteSpace=wrap;html=1;strokeColor=none;fillColor=none;" vertex="1" parent="1">
          <mxGeometry y="1192" width="640" height="112" as="geometry" />
        </mxCell>
        <mxCell id="_4HMyWejS0h1UbmQmY5R-41" value="" style="rounded=0;whiteSpace=wrap;html=1;" vertex="1" parent="1">
          <mxGeometry x="160" y="1212" width="320" height="56" as="geometry" />
        </mxCell>
        <mxCell id="_4HMyWejS0h1UbmQmY5R-42" value="" style="rounded=0;whiteSpace=wrap;html=1;" vertex="1" parent="1">
          <mxGeometry x="200" y="1285" width="240" height="21" as="geometry" />
        </mxCell>
        <mxCell id="_4HMyWejS0h1UbmQmY5R-43" value="&lt;font style=&quot;font-size: 24px;&quot; face=&quot;Fira Code&quot;&gt;/9999&lt;/font&gt;" style="rounded=0;whiteSpace=wrap;html=1;" vertex="1" parent="1">
          <mxGeometry x="525" y="1015" width="100" height="30" as="geometry" />
        </mxCell>
        <mxCell id="_4HMyWejS0h1UbmQmY5R-44" value="&lt;font style=&quot;font-size: 24px;&quot;&gt;$6666&lt;/font&gt;" style="rounded=0;whiteSpace=wrap;html=1;" vertex="1" parent="1">
          <mxGeometry x="425" y="1015" width="100" height="30" as="geometry" />
        </mxCell>
        <mxCell id="_4HMyWejS0h1UbmQmY5R-45" value="&lt;p style=&quot;line-height: 0%; margin-top: 18px; margin-bottom: 12px;&quot;&gt;&lt;font style=&quot;font-size: 28px;&quot; face=&quot;Fira Code&quot;&gt;Level&lt;/font&gt;&lt;/p&gt;" style="rounded=0;whiteSpace=wrap;html=1;align=center;" vertex="1" parent="1">
          <mxGeometry x="10" y="1010" width="120" height="40" as="geometry" />
        </mxCell>
        <mxCell id="_4HMyWejS0h1UbmQmY5R-46" value="" style="rounded=0;whiteSpace=wrap;html=1;" vertex="1" parent="1">
          <mxGeometry x="300" y="1010" width="40" height="40" as="geometry" />
        </mxCell>
        <mxCell id="_4HMyWejS0h1UbmQmY5R-47" value="" style="rounded=0;whiteSpace=wrap;html=1;" vertex="1" parent="1">
          <mxGeometry x="15" y="325" width="10" height="10" as="geometry" />
        </mxCell>
        <mxCell id="_4HMyWejS0h1UbmQmY5R-48" value="" style="rounded=0;whiteSpace=wrap;html=1;" vertex="1" parent="1">
          <mxGeometry x="35" y="325" width="10" height="10" as="geometry" />
        </mxCell>
        <mxCell id="_4HMyWejS0h1UbmQmY5R-49" value="" style="rounded=0;whiteSpace=wrap;html=1;" vertex="1" parent="1">
          <mxGeometry x="55" y="325" width="10" height="10" as="geometry" />
        </mxCell>
        <mxCell id="_4HMyWejS0h1UbmQmY5R-50" value="" style="rounded=0;whiteSpace=wrap;html=1;" vertex="1" parent="1">
          <mxGeometry x="75" y="325" width="10" height="10" as="geometry" />
        </mxCell>
        <mxCell id="_4HMyWejS0h1UbmQmY5R-51" value="" style="rounded=0;whiteSpace=wrap;html=1;" vertex="1" parent="1">
          <mxGeometry x="15" y="345" width="10" height="10" as="geometry" />
        </mxCell>
        <mxCell id="_4HMyWejS0h1UbmQmY5R-52" value="" style="rounded=0;whiteSpace=wrap;html=1;" vertex="1" parent="1">
          <mxGeometry x="35" y="345" width="10" height="10" as="geometry" />
        </mxCell>
        <mxCell id="_4HMyWejS0h1UbmQmY5R-53" value="" style="rounded=0;whiteSpace=wrap;html=1;" vertex="1" parent="1">
          <mxGeometry x="55" y="345" width="10" height="10" as="geometry" />
        </mxCell>
        <mxCell id="_4HMyWejS0h1UbmQmY5R-54" value="" style="rounded=0;whiteSpace=wrap;html=1;" vertex="1" parent="1">
          <mxGeometry x="75" y="345" width="10" height="10" as="geometry" />
        </mxCell>
        <mxCell id="_4HMyWejS0h1UbmQmY5R-55" value="" style="rounded=0;whiteSpace=wrap;html=1;" vertex="1" parent="1">
          <mxGeometry x="555" y="325" width="10" height="10" as="geometry" />
        </mxCell>
        <mxCell id="_4HMyWejS0h1UbmQmY5R-56" value="" style="rounded=0;whiteSpace=wrap;html=1;" vertex="1" parent="1">
          <mxGeometry x="575" y="325" width="10" height="10" as="geometry" />
        </mxCell>
        <mxCell id="_4HMyWejS0h1UbmQmY5R-57" value="" style="rounded=0;whiteSpace=wrap;html=1;" vertex="1" parent="1">
          <mxGeometry x="595" y="325" width="10" height="10" as="geometry" />
        </mxCell>
        <mxCell id="_4HMyWejS0h1UbmQmY5R-58" value="" style="rounded=0;whiteSpace=wrap;html=1;" vertex="1" parent="1">
          <mxGeometry x="615" y="325" width="10" height="10" as="geometry" />
        </mxCell>
        <mxCell id="_4HMyWejS0h1UbmQmY5R-59" value="" style="rounded=0;whiteSpace=wrap;html=1;" vertex="1" parent="1">
          <mxGeometry x="555" y="345" width="10" height="10" as="geometry" />
        </mxCell>
        <mxCell id="_4HMyWejS0h1UbmQmY5R-60" value="" style="rounded=0;whiteSpace=wrap;html=1;" vertex="1" parent="1">
          <mxGeometry x="575" y="345" width="10" height="10" as="geometry" />
        </mxCell>
        <mxCell id="_4HMyWejS0h1UbmQmY5R-61" value="" style="rounded=0;whiteSpace=wrap;html=1;" vertex="1" parent="1">
          <mxGeometry x="595" y="345" width="10" height="10" as="geometry" />
        </mxCell>
        <mxCell id="_4HMyWejS0h1UbmQmY5R-62" value="" style="rounded=0;whiteSpace=wrap;html=1;" vertex="1" parent="1">
          <mxGeometry x="615" y="345" width="10" height="10" as="geometry" />
        </mxCell>
      </root>
    </mxGraphModel>
  </diagram>
</mxfile>
